<svg width="16" height="16" viewBox="0 0 16 16" fill="none" xmlns="http://www.w3.org/2000/svg">
<path d="M7.984 0C3.44 0 0 3.72559 0 7.98798C0 12.9314 4.032 16 8 16C9.312 16 10.768 15.6475 11.936 14.9584C12.344 14.7101 12.688 14.5258 13.128 14.67L14.744 15.1507C15.152 15.2789 15.52 14.9584 15.4 14.5258L14.864 12.7311C14.776 12.4827 14.792 12.2183 14.92 12.01C15.608 10.7441 16 9.35804 16 8.01202C16 3.7977 12.632 0 7.984 0ZM4.328 6.99449C4.896 6.99449 5.352 7.45118 5.352 8.02003C5.352 8.58087 4.896 9.04557 4.328 9.04557C3.76 9.04557 3.304 8.58087 3.304 8.02003C3.304 7.45118 3.76 6.99449 4.328 6.99449ZM8.016 6.99449C8.576 6.98648 9.04 7.45118 9.04 8.01202C9.04 8.58087 8.584 9.03756 8.016 9.04557C7.448 9.04557 6.992 8.58087 6.992 8.02003C6.992 7.45118 7.448 6.99449 8.016 6.99449ZM11.704 6.99449C12.272 6.99449 12.728 7.45118 12.728 8.02003C12.728 8.58087 12.264 9.04557 11.704 9.04557C11.136 9.03756 10.68 8.58087 10.68 8.02003C10.68 7.45118 11.136 6.99449 11.704 6.99449Z" fill="#A9A9A9"/>
</svg>
