<svg width="22" height="20" viewBox="0 0 22 20" fill="none" xmlns="http://www.w3.org/2000/svg">
<path d="M18.2172 12.1215C20.3072 12.1215 22 13.7858 22 15.8391C22 17.8913 20.3072 19.5556 18.2172 19.5556C16.1285 19.5556 14.4345 17.8913 14.4345 15.8391C14.4345 13.7858 16.1285 12.1215 18.2172 12.1215ZM8.89162 14.2537C9.80706 14.2537 10.5502 14.9838 10.5502 15.8832C10.5502 16.7814 9.80706 17.5127 8.89162 17.5127H1.65855C0.743107 17.5127 0 16.7814 0 15.8832C0 14.9838 0.743107 14.2537 1.65855 14.2537H8.89162ZM3.78276 0C5.87275 0 7.56551 1.66428 7.56551 3.71642C7.56551 5.76975 5.87275 7.43403 3.78276 7.43403C1.69399 7.43403 0 5.76975 0 3.71642C0 1.66428 1.69399 0 3.78276 0ZM20.3427 2.08816C21.2569 2.08816 22 2.81823 22 3.71642C22 4.6158 21.2569 5.34588 20.3427 5.34588H13.1096C12.1942 5.34588 11.4511 4.6158 11.4511 3.71642C11.4511 2.81823 12.1942 2.08816 13.1096 2.08816H20.3427Z" fill="#575757"/>
</svg>
