<svg width="6" height="8" viewBox="0 0 6 8" fill="none" xmlns="http://www.w3.org/2000/svg">
<path d="M1.51355 0.401474C2.44992 -0.142597 3.60087 -0.133087 4.52845 0.426383C5.44691 0.997249 6.00513 2.01608 5.99997 3.11205C5.97855 4.20083 5.37998 5.22429 4.63177 6.01547C4.19993 6.47417 3.71684 6.87979 3.19236 7.22402C3.13835 7.25525 3.07918 7.27616 3.01778 7.28572C2.95869 7.2832 2.90114 7.26574 2.85032 7.23491C2.04961 6.71767 1.34714 6.05745 0.776713 5.28599C0.299395 4.64201 0.0282148 3.864 0 3.05761L0.00213695 2.9403C0.0411095 1.88771 0.610627 0.926113 1.51355 0.401474ZM3.38883 2.15776C3.00817 1.99596 2.5693 2.08386 2.27714 2.38044C1.98497 2.67701 1.89713 3.12374 2.05464 3.51205C2.21215 3.90036 2.58394 4.15365 2.9964 4.15365C3.26662 4.15559 3.52637 4.04736 3.71778 3.85306C3.90919 3.65877 4.01635 3.39456 4.0154 3.11931C4.01684 2.69916 3.76948 2.31956 3.38883 2.15776Z" fill="#DBDBDB"/>
</svg>
