<svg width="15" height="16" viewBox="0 0 15 16" fill="none" xmlns="http://www.w3.org/2000/svg">
<path fill-rule="evenodd" clip-rule="evenodd" d="M7.20886 0C11.1838 0 14.417 3.23322 14.417 7.20812C14.417 9.08346 13.6973 10.7939 12.5196 12.0776L14.837 14.3901C15.0539 14.607 15.0546 14.9578 14.8377 15.1747C14.7296 15.2843 14.5868 15.3383 14.4447 15.3383C14.3033 15.3383 14.1612 15.2843 14.0524 15.1762L11.707 12.8374C10.4732 13.8254 8.90887 14.417 7.20886 14.417C3.23396 14.417 0 11.183 0 7.20812C0 3.23322 3.23396 0 7.20886 0ZM7.20886 1.11031C3.84611 1.11031 1.11031 3.84537 1.11031 7.20812C1.11031 10.5709 3.84611 13.3067 7.20886 13.3067C10.5709 13.3067 13.3067 10.5709 13.3067 7.20812C13.3067 3.84537 10.5709 1.11031 7.20886 1.11031Z" fill="#6C6C6C"/>
</svg>
